<?xml version="1.0" encoding="UTF-8" standalone="no"?>
<svg
   xmlns:dc="http://purl.org/dc/elements/1.1/"
   xmlns:cc="http://creativecommons.org/ns#"
   xmlns:rdf="http://www.w3.org/1999/02/22-rdf-syntax-ns#"
   xmlns:svg="http://www.w3.org/2000/svg"
   xmlns="http://www.w3.org/2000/svg"
   xmlns:sodipodi="http://sodipodi.sourceforge.net/DTD/sodipodi-0.dtd"
   xmlns:inkscape="http://www.inkscape.org/namespaces/inkscape"
   version="1.1"
   x="0px"
   y="0px"
   viewBox="0 0 51 51"
   enable-background="new 0 0 48 48"
   xml:space="preserve"
   id="svg4388"
   inkscape:version="0.91 r13725"
   sodipodi:docname="database.svg"
   width="51"
   height="51"><metadata
     id="metadata4406"><rdf:RDF><cc:Work
         rdf:about=""><dc:format>image/svg+xml</dc:format><dc:type
           rdf:resource="http://purl.org/dc/dcmitype/StillImage" /><dc:title></dc:title></cc:Work></rdf:RDF></metadata><defs
     id="defs4404" /><sodipodi:namedview
     pagecolor="#ffffff"
     bordercolor="#666666"
     borderopacity="1"
     objecttolerance="10"
     gridtolerance="10"
     guidetolerance="10"
     inkscape:pageopacity="0"
     inkscape:pageshadow="2"
     inkscape:window-width="1366"
     inkscape:window-height="702"
     id="namedview4402"
     showgrid="false"
     fit-margin-top="2"
     fit-margin-left="2"
     fit-margin-bottom="2"
     fit-margin-right="2"
     inkscape:zoom="3.9333333"
     inkscape:cx="-1.5762719"
     inkscape:cy="23.567797"
     inkscape:window-x="0"
     inkscape:window-y="27"
     inkscape:window-maximized="1"
     inkscape:current-layer="svg4388" /><g
     id="g4390"
     transform="translate(1.5,1.5)"
     style="fill:#ffffff;fill-opacity:1"><path
       d="m 47.5,23.5 0,-4.8 c 0,-0.5 -0.6,-0.8 -1,-0.5 -4.9,3.9 -13.7,5.9 -22.5,5.9 -8.7,0 -17.5,-2 -22.5,-5.9 -0.4,-0.3 -1,0 -1,0.5 l 0,4.8 0,0 c 0,0.1 0,0.2 0,0.4 0,5.6 10.5,10.2 23.5,10.2 13,0 23.5,-4.6 23.5,-10.3 0,-0.1 0,-0.2 0,-0.3 l 0,0 z"
       id="path4392"
       inkscape:connector-curvature="0"
       style="fill:#ffffff;fill-opacity:1" /><path
       d="m 47.5,36.9 0,-4.8 c 0,-0.5 -0.6,-0.8 -1,-0.5 -4.9,3.9 -13.7,5.9 -22.5,5.9 -8.7,0 -17.5,-2 -22.5,-5.9 -0.4,-0.3 -1,0 -1,0.5 l 0,4.8 0,0 c 0,0.1 0,0.2 0,0.4 0,5.6 10.5,10.2 23.5,10.2 13,0 23.5,-4.6 23.5,-10.3 0,-0.1 0,-0.2 0,-0.3 l 0,0 z"
       id="path4394"
       inkscape:connector-curvature="0"
       style="fill:#ffffff;fill-opacity:1" /><ellipse
       cx="24"
       cy="10.8"
       rx="23.5"
       ry="10.3"
       id="ellipse4396"
       style="fill:#ffffff;fill-opacity:1" /></g></svg>