<?xml version="1.0" encoding="UTF-8" standalone="no"?>
<!-- Created with Inkscape (http://www.inkscape.org/) -->

<svg
   xmlns:dc="http://purl.org/dc/elements/1.1/"
   xmlns:cc="http://creativecommons.org/ns#"
   xmlns:rdf="http://www.w3.org/1999/02/22-rdf-syntax-ns#"
   xmlns:svg="http://www.w3.org/2000/svg"
   xmlns="http://www.w3.org/2000/svg"
   xmlns:sodipodi="http://sodipodi.sourceforge.net/DTD/sodipodi-0.dtd"
   xmlns:inkscape="http://www.inkscape.org/namespaces/inkscape"
   width="210mm"
   height="297mm"
   viewBox="0 0 744.09448819 1052.3622047"
   id="svg2"
   version="1.1"
   inkscape:version="0.91 r13725"
   sodipodi:docname="template.svg">
  <defs
     id="defs4" />
  <sodipodi:namedview
     id="base"
     pagecolor="#ffffff"
     bordercolor="#666666"
     borderopacity="1.0"
     inkscape:pageopacity="0.0"
     inkscape:pageshadow="2"
     inkscape:zoom="0.175"
     inkscape:cx="318.02265"
     inkscape:cy="1150.3258"
     inkscape:document-units="px"
     inkscape:current-layer="layer1"
     showgrid="false"
     inkscape:window-width="1366"
     inkscape:window-height="702"
     inkscape:window-x="0"
     inkscape:window-y="27"
     inkscape:window-maximized="1" />
  <metadata
     id="metadata7">
    <rdf:RDF>
      <cc:Work
         rdf:about="">
        <dc:format>image/svg+xml</dc:format>
        <dc:type
           rdf:resource="http://purl.org/dc/dcmitype/StillImage" />
        <dc:title />
      </cc:Work>
    </rdf:RDF>
  </metadata>
  <g
     inkscape:label="Layer 1"
     inkscape:groupmode="layer"
     id="layer1">
    <rect
       style="fill:#ff422b;fill-opacity:1;stroke:none;stroke-width:1;stroke-miterlimit:4;stroke-dasharray:none;stroke-opacity:1"
       id="rect4136"
       width="2574.2856"
       height="1454.2858"
       x="-1080"
       y="-459.06638"
       ry="0" />
    <g
       id="g4179"
       transform="matrix(0.52953684,0,0,0.52953684,-973.24874,-1329.8747)">
      <rect
         transform="matrix(-0.26755363,-0.96354297,0.96354297,-0.26755363,0,0)"
         ry="93.15567"
         y="-868.41931"
         x="-931.69312"
         height="1031.3663"
         width="1031.3663"
         id="rect4154"
         style="fill:#ffffff;fill-opacity:1;stroke:none;stroke-width:1;stroke-miterlimit:4;stroke-dasharray:none;stroke-opacity:1" />
      <g
         id="text4138"
         style="font-style:normal;font-variant:normal;font-weight:normal;font-stretch:normal;font-size:526.9118042px;line-height:125%;font-family:Bariol;-inkscape-font-specification:'Bariol, Normal';text-align:start;letter-spacing:0px;word-spacing:0px;writing-mode:lr-tb;text-anchor:start;fill:#ff422b;fill-opacity:1;stroke:none;stroke-width:1px;stroke-linecap:butt;stroke-linejoin:miter;stroke-opacity:1">
        <path
           id="path4177"
           d="m -605.72889,398.3587 q 0,-7.20387 4.63106,-12.09221 4.88834,-4.88835 12.09221,-4.88835 9.77668,0 14.92231,8.49028 13.89318,22.38346 37.30576,36.27665 23.66987,13.89318 56.34458,13.89318 43.73779,0 67.15038,-17.49512 23.41258,-17.7524 23.41258,-52.22808 0,-15.69415 -6.94659,-27.78636 -6.68931,-12.09221 -18.26696,-19.81065 -11.57765,-7.97571 -26.49996,-14.15046 -14.92231,-6.43203 -31.3883,-11.57765 -16.46599,-5.40291 -32.93199,-10.80581 -16.46599,-5.66019 -31.3883,-13.37862 -14.9223,-7.97572 -26.49996,-18.00968 -11.57765,-10.29125 -18.52424,-25.72812 -6.68931,-15.69415 -6.68931,-35.76208 0,-38.84945 28.55821,-64.32029 28.81549,-25.72811 83.61637,-25.72811 37.04849,0 66.37854,14.66502 29.58733,14.40775 46.56789,39.6213 3.08737,4.63106 3.08737,10.03396 0,7.20388 -4.88834,12.09222 -4.63106,4.63106 -11.83493,4.63106 -8.49028,0 -13.89318,-6.68931 -33.44655,-41.67955 -85.41735,-41.67955 -38.84945,0 -57.63098,16.20872 -18.52424,16.20871 -18.52424,41.16498 0,13.89318 6.68931,24.95627 6.94659,10.80581 18.52425,18.26696 11.57765,7.20388 26.49995,13.37862 14.92231,5.91747 31.3883,11.57766 16.466,5.4029 32.93199,11.57765 16.466,5.91746 31.3883,14.40774 14.92231,8.49028 26.49996,19.29609 11.57765,10.80581 18.26696,27.01452 6.9466,16.20871 6.9466,36.53392 0,49.39799 -32.93199,75.89795 -32.67471,26.49995 -93.65034,26.49995 -42.70867,0 -75.64066,-18.52424 -32.67471,-18.78152 -47.08245,-46.31061 -2.57281,-5.14562 -2.57281,-9.5194 z"
           inkscape:connector-curvature="0" />
      </g>
      <g
         id="text4142"
         style="font-style:normal;font-variant:normal;font-weight:normal;font-stretch:normal;font-size:526.9118042px;line-height:125%;font-family:Bariol;-inkscape-font-specification:'Bariol, Normal';text-align:start;letter-spacing:0px;word-spacing:0px;writing-mode:lr-tb;text-anchor:start;fill:#ff422b;fill-opacity:1;stroke:none;stroke-width:1px;stroke-linecap:butt;stroke-linejoin:miter;stroke-opacity:1">
        <path
           id="path4163"
           d="m -409.16082,856.99383 0,-328.29075 q 0,-7.20387 5.14562,-12.34949 5.14562,-5.14563 12.3495,-5.14563 10.54852,0 15.69415,10.03397 l 127.61145,238.75691 128.12602,-238.75691 q 5.66018,-10.03397 15.69415,-10.03397 7.203868,0 12.349491,5.14563 5.145623,5.14562 5.145623,12.34949 l 0,328.29075 q 0,7.20388 -5.145623,12.3495 -5.145623,4.88834 -12.349491,4.88834 -7.20388,0 -12.3495,-4.88834 -4.88834,-5.14562 -4.88834,-12.3495 l 0,-259.3394 -110.88818,205.05308 q -5.14562,10.03397 -15.69415,10.03397 -10.80581,0 -15.69415,-10.03397 l -110.11633,-205.05308 0,259.3394 q 0,7.20388 -5.14563,12.3495 -5.14562,4.88834 -12.34949,4.88834 -7.20388,0 -12.3495,-4.88834 -5.14562,-5.14562 -5.14562,-12.3495 z"
           inkscape:connector-curvature="0" />
      </g>
      <g
         id="text4146"
         style="font-style:normal;font-variant:normal;font-weight:normal;font-stretch:normal;font-size:93.15567017px;line-height:125%;font-family:Bariol;-inkscape-font-specification:'Bariol, Normal';text-align:start;letter-spacing:0px;word-spacing:0px;writing-mode:lr-tb;text-anchor:start;fill:#4c4f4f;fill-opacity:1;stroke:none;stroke-width:1px;stroke-linecap:butt;stroke-linejoin:miter;stroke-opacity:1">
        <path
           id="path4166"
           d="m -272.80421,437.96913 q -5.13993,-5.64029 -5.13993,-16.82988 0,-11.1896 5.13993,-16.73891 5.13994,-5.5948 14.41912,-5.5948 9.32466,0 14.41911,5.5948 5.13994,5.54931 5.13994,16.73891 0,11.18959 -5.13994,16.82988 -5.09445,5.64028 -14.41911,5.64028 -9.23369,0 -14.41912,-5.64028 z m 0.90973,-16.82988 q 0,17.05731 13.50939,17.05731 13.50939,0 13.50939,-17.05731 0,-16.96634 -13.50939,-16.96634 -13.50939,0 -13.50939,16.96634 z"
           inkscape:connector-curvature="0" />
        <path
           id="path4168"
           d="m -230.4111,426.64307 0,-24.3351 q 0,-1.27361 0.81875,-2.09236 0.86424,-0.86424 2.13785,-0.86424 1.22813,0 2.09236,0.86424 0.90973,0.86424 0.90973,2.09236 l 0,24.3351 q 0,2.45626 0.45486,4.36667 0.50035,1.86494 1.68299,3.50244 1.18264,1.6375 3.50243,2.54723 2.3198,0.86423 5.73126,0.86423 3.41146,0 5.73126,-0.86423 2.31979,-0.90973 3.45695,-2.54723 1.18264,-1.6375 1.6375,-3.50244 0.50035,-1.86493 0.50035,-4.36667 l 0,-24.3351 q 0,-1.22812 0.90972,-2.09236 0.90972,-0.86424 2.18333,-0.86424 1.18265,0 2.0014,0.86424 0.86423,0.81875 0.86423,2.09236 l 0,24.3351 q 0,2.86563 -0.40937,5.18543 -0.40938,2.31979 -1.54653,4.5941 -1.13716,2.27431 -3.00209,3.82084 -1.86493,1.50104 -5.00348,2.41076 -3.13854,0.95521 -7.32327,0.95521 -4.18473,0 -7.32327,-0.95521 -3.09306,-0.90972 -5.00348,-2.41076 -1.86493,-1.54653 -3.04757,-3.82084 -1.13716,-2.27431 -1.54653,-4.5941 -0.40938,-2.3198 -0.40938,-5.18543 z"
           inkscape:connector-curvature="0" />
        <path
           id="path4170"
           d="m -184.56104,440.15246 0,-37.84449 q 0,-1.27361 0.86423,-2.09236 0.86424,-0.86424 2.13785,-0.86424 1.27362,0 2.09237,0.86424 0.86424,0.81875 0.86424,2.09236 l 0,4.09376 q 1.45555,-3.32049 4.86702,-5.36737 3.41146,-2.04688 8.09653,-2.04688 1.18264,0 2.00139,0.86424 0.86424,0.81875 0.86424,2.00139 0,1.18264 -0.86424,2.04688 -0.81875,0.86424 -2.00139,0.86424 -6.2316,0 -9.59758,3.95729 -3.36597,3.9573 -3.36597,10.55279 l 0,20.87815 q 0,1.27362 -0.86424,2.13785 -0.81875,0.81876 -2.09237,0.81876 -1.27361,0 -2.13785,-0.81876 -0.86423,-0.86423 -0.86423,-2.13785 z"
           inkscape:connector-curvature="0" />
        <path
           id="path4172"
           d="m -153.94885,438.01461 q -5.00348,-5.64028 -5.00348,-16.87536 0,-11.23509 4.95799,-16.7844 5.00348,-5.54931 14.23717,-5.54931 5.41286,0 9.00626,2.09236 3.6389,2.04688 5.32189,4.32119 0.6368,0.90972 0.6368,1.77396 0,1.18264 -0.77326,1.9559 -0.77327,0.72778 -1.91042,0.72778 -1.27361,0 -2.22882,-1.09167 -0.77327,-0.86423 -1.36459,-1.41007 -0.59132,-0.54583 -1.81945,-1.36458 -1.22812,-0.81875 -3.00208,-1.22813 -1.72848,-0.40937 -3.86633,-0.40937 -13.1455,0 -13.1455,16.96634 0,17.05731 13.1455,17.05731 2.50174,0 4.77605,-0.72778 2.3198,-0.77326 3.36598,-1.45556 1.09167,-0.68229 2.6382,-1.81944 0.9552,-0.6823 1.77396,-0.6823 1.13715,0 1.91041,0.81876 0.77327,0.77326 0.77327,1.91041 0,1.27362 -1.18264,2.3198 -6.14063,5.04896 -14.05523,5.04896 -9.1882,0 -14.19168,-5.5948 z"
           inkscape:connector-curvature="0" />
        <path
           id="path4174"
           d="m -117.83283,421.13925 q 0,-10.68925 5.04896,-16.51148 5.04897,-5.82223 14.146203,-5.82223 3.593407,0 6.459035,0.90972 2.911115,0.86424 4.776048,2.41077 1.910419,1.54653 3.229518,3.36598 1.364585,1.81944 2.046877,3.95729 0.682293,2.13785 0.95521,3.9573 0.318403,1.77396 0.318403,3.54792 0,1.36458 -0.09097,2.13785 -0.04549,0.72778 -0.36389,1.77396 -0.318403,1.04618 -1.137154,1.54653 -0.818751,0.50035 -2.13785,0.50035 l -27.20073,0 q 0,6.95938 3.72987,11.09862 3.77535,4.09376 10.325358,4.09376 3.638893,0 6.186119,-1.04618 2.547225,-1.09167 5.003478,-2.95661 0.909723,-0.59132 1.682988,-0.59132 1.137154,0 1.910419,0.81876 0.773265,0.77326 0.773265,1.91041 0,1.13716 -1.000696,2.13785 -1.000695,1.0007 -2.547225,2.04688 -1.54653,1.0007 -4.912506,2.09237 -3.32049,1.09166 -7.095842,1.09166 -9.597588,0 -14.873978,-5.50382 -5.23091,-5.54932 -5.23091,-16.96634 z m 6.04966,-3.45695 25.062878,0 q 0,-2.72917 -0.545834,-4.95799 -0.545834,-2.22883 -1.819446,-4.23022 -1.228127,-2.04688 -3.68438,-3.18403 -2.410767,-1.13715 -5.867715,-1.13715 -5.958693,0 -9.370153,3.5934 -3.36597,3.59341 -3.77535,9.91599 z"
           inkscape:connector-curvature="0" />
      </g>
      <g
         id="text4150"
         style="font-style:normal;font-variant:normal;font-weight:normal;font-stretch:normal;font-size:93.15567017px;line-height:125%;font-family:Bariol;-inkscape-font-specification:'Bariol, Normal';text-align:start;letter-spacing:0px;word-spacing:0px;writing-mode:lr-tb;text-anchor:start;fill:#4c4f4f;fill-opacity:1;stroke:none;stroke-width:1px;stroke-linecap:butt;stroke-linejoin:miter;stroke-opacity:1">
        <path
           id="path4152"
           d="m -30.822175,845.64775 q 0,-6.14063 4.366672,-9.64307 4.366672,-3.50243 11.917376,-3.50243 l 13.1455023,0 0,-2.50174 q 0,-4.73056 -2.9566009,-7.50522 -2.9566008,-2.77466 -8.0510514,-2.77466 -3.638894,0 -6.140633,1.13716 -2.456253,1.13715 -4.639589,3.63889 -1.137154,1.3191 -2.456253,1.3191 -1.137154,0 -1.910419,-0.77326 -0.773265,-0.81875 -0.773265,-1.95591 0,-0.81875 0.454862,-1.59201 2.092364,-3.3205 6.004174,-5.32189 3.91181,-2.00139 9.461123,-2.00139 8.0055653,0 12.37223729,4.2757 4.41215821,4.2757 4.41215821,11.55349 l 0,25.60871 q 0,1.18264 -0.8642372,2.04688 -0.8642372,0.81875 -2.0468775,0.81875 -1.18264034,0 -2.04687751,-0.81875 -0.81875099,-0.86424 -0.81875099,-2.04688 l 0,-3.36598 q -1.6829882,3.18404 -5.3673677,4.958 -3.6388936,1.77396 -7.9600796,1.77396 -7.505217,0 -11.826403,-3.50244 -4.2757,-3.50243 -4.2757,-9.82501 z m 6.04966,0 q 0,3.72987 2.638198,5.82223 2.638198,2.09236 7.960079,2.09236 5.2309095,0 9.0062614,-3.13854 3.7753519,-3.13855 3.7753519,-8.77883 l 0,-3.91181 -13.1455023,0 q -4.730561,0 -7.505218,2.00139 -2.72917,2.00139 -2.72917,5.9132 z"
           inkscape:connector-curvature="0" />
        <path
           id="path4154"
           d="m 12.571628,850.37831 q 0,-1.13715 0.773265,-1.91042 0.773265,-0.77326 1.910419,-0.77326 1.137154,0 2.046878,0.90972 4.594103,4.5941 11.826403,4.5941 4.366672,0 7.095842,-1.59201 2.774656,-1.6375 2.774656,-5.04897 0,-1.72847 -1.046181,-3.04757 -1.046182,-1.3191 -2.774657,-2.13785 -1.728474,-0.81875 -3.957296,-1.6375 -2.183336,-0.86424 -4.457644,-1.54653 -2.274309,-0.72778 -4.503131,-1.81945 -2.183336,-1.13715 -3.91181,-2.45625 -1.728475,-1.36459 -2.774657,-3.50244 -1.046181,-2.18333 -1.046181,-4.9125 0,-5.54931 3.957296,-8.36946 4.002783,-2.86563 10.279874,-2.86563 9.688553,0 14.146198,5.95869 0.682292,0.90973 0.682292,1.77396 0,1.13716 -0.818751,1.91042 -0.773265,0.77327 -1.910419,0.77327 -1.137154,0 -1.955905,-0.81875 -2.046877,-1.95591 -4.412158,-2.91112 -2.319795,-1.00069 -5.731257,-1.00069 -3.593407,0 -5.958688,1.31909 -2.319795,1.27362 -2.319795,4.23022 0,1.72847 1.046182,3.09306 1.046182,1.36458 2.774656,2.22882 1.728475,0.86424 3.911811,1.72847 2.228822,0.86424 4.50313,1.59202 2.274309,0.68229 4.457645,1.81945 2.228822,1.09166 3.957296,2.41076 1.728475,1.27362 2.774657,3.41147 1.046181,2.09236 1.046181,4.77604 0,4.09376 -2.13785,6.95939 -2.137849,2.82014 -5.640284,4.09375 -3.502435,1.27361 -8.051052,1.27361 -5.276395,0 -9.552095,-2.04687 -4.2757,-2.04688 -6.368063,-4.68508 -0.636807,-0.90972 -0.636807,-1.77396 z"
           inkscape:connector-curvature="0" />
        <path
           id="path4156"
           d="m 55.01022,855.51825 0,-61.13341 q 0,-1.27361 0.864237,-2.09236 0.864237,-0.86424 2.13785,-0.86424 1.273613,0 2.092364,0.86424 0.864237,0.81875 0.864237,2.09236 l 0,26.291 q 1.410071,-2.82014 4.730561,-4.63958 3.320491,-1.86494 7.687163,-1.86494 4.139241,0 7.2323,1.0007 3.138546,0.95521 4.957992,2.50174 1.864933,1.54653 3.002087,3.77535 1.137155,2.22882 1.501044,4.41216 0.409375,2.18333 0.409375,4.77604 l 0,24.88094 q 0,1.27361 -0.864237,2.13785 -0.818751,0.81875 -2.092363,0.81875 -1.273613,0 -2.13785,-0.81875 -0.864238,-0.86424 -0.864238,-2.13785 l 0,-23.65281 q 0,-2.9566 -0.500347,-5.04896 -0.454862,-2.13785 -1.682989,-3.86633 -1.18264,-1.77396 -3.411462,-2.6382 -2.228822,-0.86423 -5.549312,-0.86423 -12.417724,0 -12.417724,13.05453 l 0,23.016 q 0,1.27361 -0.864237,2.13785 -0.818751,0.81875 -2.092364,0.81875 -1.273613,0 -2.13785,-0.81875 -0.864237,-0.86424 -0.864237,-2.13785 z"
           inkscape:connector-curvature="0" />
        <path
           id="path4158"
           d="m 100.67833,842.00886 0,-24.3351 q 0,-1.27362 0.81875,-2.09237 0.86424,-0.86423 2.13785,-0.86423 1.22813,0 2.09237,0.86423 0.90972,0.86424 0.90972,2.09237 l 0,24.3351 q 0,2.45625 0.45486,4.36667 0.50035,1.86493 1.68299,3.50243 1.18264,1.63751 3.50243,2.54723 2.3198,0.86424 5.73126,0.86424 3.41146,0 5.73126,-0.86424 2.31979,-0.90972 3.45695,-2.54723 1.18264,-1.6375 1.6375,-3.50243 0.50035,-1.86493 0.50035,-4.36667 l 0,-24.3351 q 0,-1.22813 0.90972,-2.09237 0.90972,-0.86423 2.18334,-0.86423 1.18264,0 2.00139,0.86423 0.86423,0.81875 0.86423,2.09237 l 0,24.3351 q 0,2.86563 -0.40937,5.18542 -0.40938,2.31979 -1.54653,4.5941 -1.13715,2.27431 -3.00209,3.82084 -1.86493,1.50104 -5.00348,2.41077 -3.13854,0.95521 -7.32327,0.95521 -4.18473,0 -7.32327,-0.95521 -3.09306,-0.90973 -5.00348,-2.41077 -1.86493,-1.54653 -3.04757,-3.82084 -1.13716,-2.27431 -1.54653,-4.5941 -0.40938,-2.31979 -0.40938,-5.18542 z"
           inkscape:connector-curvature="0" />
        <path
           id="path4160"
           d="m 146.52839,873.48528 0,-55.81152 q 0,-1.22813 0.86424,-2.09237 0.90972,-0.86423 2.13785,-0.86423 1.22813,0 2.09236,0.86423 0.86424,0.86424 0.86424,2.09237 l 0,3.00208 q 1.45556,-2.63819 4.86702,-4.54861 3.45695,-1.95591 7.82362,-1.95591 9.32467,0 14.37363,5.5948 5.09445,5.54931 5.09445,16.73891 0,11.23508 -5.09445,16.87537 -5.09445,5.5948 -14.37363,5.5948 -4.32118,0 -7.68716,-1.91042 -3.36598,-1.95591 -5.00348,-4.63959 l 0,21.06009 q 0,1.18264 -0.90972,2.09237 -0.86424,0.90972 -2.04688,0.90972 -1.18264,0 -2.09236,-0.90972 -0.90973,-0.90973 -0.90973,-2.09237 z m 9.32467,-49.76186 q -3.54792,4.18472 -3.54792,12.78161 0,8.59689 3.50243,12.8271 3.54792,4.23021 9.37015,4.23021 6.55001,0 9.96147,-4.23021 3.45695,-4.23021 3.45695,-12.8271 0,-8.5514 -3.54792,-12.73613 -3.50243,-4.23021 -10.05244,-4.23021 -5.5948,0 -9.14272,4.18473 z"
           inkscape:connector-curvature="0" />
      </g>
    </g>
    <text
       xml:space="preserve"
       style="font-style:normal;font-variant:normal;font-weight:normal;font-stretch:normal;font-size:208.23345947px;line-height:125%;font-family:Bariol;-inkscape-font-specification:'Bariol, Normal';text-align:start;letter-spacing:0px;word-spacing:0px;writing-mode:lr-tb;text-anchor:start;fill:#ffffff;fill-opacity:1;stroke:none;stroke-width:1px;stroke-linecap:butt;stroke-linejoin:miter;stroke-opacity:1"
       x="-411.79303"
       y="321.37546"
       id="text4198"
       sodipodi:linespacing="125%"><tspan
         sodipodi:role="line"
         id="tspan4200"
         x="-411.79303"
         y="321.37546">Source<tspan
   style="fill:#384041;fill-opacity:1"
   id="tspan4202"> Mashup</tspan></tspan></text>
    <rect
       style="fill:#ffffff;fill-opacity:0.23170734;stroke:none;stroke-width:1;stroke-miterlimit:4;stroke-dasharray:none;stroke-opacity:1"
       id="rect4206"
       width="422.85715"
       height="422.85715"
       x="879.98395"
       y="-34.070438"
       transform="matrix(0.88267006,0.46999315,-0.46999315,0.88267006,0,0)"
       ry="61.508511" />
    <circle
       style="fill:#ffffff;fill-opacity:0.23170732;stroke:none;stroke-width:1;stroke-miterlimit:4;stroke-dasharray:none;stroke-opacity:1"
       id="path4208"
       cx="-760"
       cy="-10.494938"
       r="165.71428" />
    <path
       style="fill:#ffffff;fill-opacity:0.23170732;stroke:none;stroke-width:1;stroke-miterlimit:4;stroke-dasharray:none;stroke-opacity:1"
       d="M 1131.039,224.88435 531.81819,-228.73133 1058.2364,-301.53388 Z"
       id="rect4210"
       inkscape:connector-curvature="0"
       sodipodi:nodetypes="cccc" />
    <path
       sodipodi:type="star"
       style="fill:#ffffff;fill-opacity:0.23170732;stroke:none;stroke-width:1;stroke-miterlimit:4;stroke-dasharray:none;stroke-opacity:1"
       id="path4229"
       sodipodi:sides="7"
       sodipodi:cx="-502.85717"
       sodipodi:cy="726.6479"
       sodipodi:r1="216.31421"
       sodipodi:r2="108.1571"
       sodipodi:arg1="0.21293835"
       sodipodi:arg2="0.6617373"
       inkscape:flatsided="false"
       inkscape:rounded="0"
       inkscape:randomized="0"
       d="m -291.42861,772.36217 -126.10064,20.747 10.75476,127.34262 -94.84311,-85.65391 -92.85499,87.80524 7.8332,-127.55568 -126.54303,-17.85128 104.61096,-73.40541 -64.94159,-110.06543 122.61453,36.02062 45.56219,-119.39805 48.28686,118.32239 121.75672,-38.82151 -62.40181,111.52498 z"
       inkscape:transform-center-x="-6.7545405"
       inkscape:transform-center-y="14.126491" />
  </g>
</svg>
